<?xml version="1.0" encoding="utf-8"?>
<!-- Generator: Adobe Illustrator 16.0.0, SVG Export Plug-In . SVG Version: 6.00 Build 0)  -->
<!DOCTYPE svg PUBLIC "-//W3C//DTD SVG 1.1//EN" "http://www.w3.org/Graphics/SVG/1.1/DTD/svg11.dtd">
<svg version="1.1" id="Capa_1" xmlns="http://www.w3.org/2000/svg" xmlns:xlink="http://www.w3.org/1999/xlink" x="0px" y="0px"
	 width="231.227px" height="185.432px" viewBox="0 0 231.227 185.432" enable-background="new 0 0 231.227 185.432"
	 xml:space="preserve">
<path fill="#000000" d="M220.125,28.95c0-7.868-6.379-14.246-14.245-14.246H32.248c-7.867,0-14.246,6.378-14.246,14.246v127.532
	c0,7.867,6.379,14.245,14.246,14.245H205.88c7.866,0,14.245-6.378,14.245-14.245V28.95L220.125,28.95z M62.49,37.24
	c1.021-1.914,12.783-4.881,20.185-1.608c3.368,1.49,11.714,5.612,21.748,10.654l41.99-9.023l12.638,5.828l-29.87,15.736
	c10.097,5.145,19.439,9.932,25.257,12.917l7.822-2.413l14.063,8.305l-27.243,14.662l-27.028-13.764L77.661,55.93
	C60.322,45.964,62.475,37.266,62.49,37.24z M196.19,153.885h-69.147v-18.616h69.147V153.885z M196.19,121.97H41.052v-18.615H196.19
	V121.97L196.19,121.97z"/>
</svg>
