<?xml version="1.0" encoding="utf-8"?>
<!-- Generator: Adobe Illustrator 15.1.0, SVG Export Plug-In . SVG Version: 6.00 Build 0)  -->
<!DOCTYPE svg PUBLIC "-//W3C//DTD SVG 1.1//EN" "http://www.w3.org/Graphics/SVG/1.1/DTD/svg11.dtd">
<svg version="1.1" id="Capa_1" xmlns="http://www.w3.org/2000/svg" xmlns:xlink="http://www.w3.org/1999/xlink" x="0px" y="0px"
	 width="219.49px" height="201.295px" viewBox="0 1074.295 219.49 201.295" enable-background="new 0 1074.295 219.49 201.295"
	 xml:space="preserve">
<g>
	<circle fill="#000000" cx="67.739" cy="1101.957" r="16.853"/>
	<polygon fill="#000000" points="87.542,1217.345 53.66,1151.715 7.458,1154.043 44.593,1270.033 174.221,1270.033 
		183.653,1270.033 157.164,1223.974 	"/>
	<path fill="#000000" d="M172.945,1196.347c-5.757-6.715-15.615-6.506-23.592-6.008c-9.607,0.603-19.343,0.465-29.04,0.304
		c-0.413-0.925-0.925-1.864-1.564-2.784c-7.033-10.138-12.624-21.206-17.906-32.478c9.513,0,19.016,0,28.538,0
		c11.993,0,13.458-16.327,4.382-20.315v-10.067l5.828-6.966c0-0.005,0-0.005,0-0.005l6.814-8.146h-30.254l11.827,15.117l0.009,9.19
		c-12.339,0-24.664,0-37.002,0c-0.228-0.474-0.451-0.953-0.673-1.423c-3.519-7.312-10.703-12.039-18.992-9.123
		c-7.009,2.466-12.652,11.665-9.128,18.996c9.954,20.666,18.982,43.338,32.094,62.201c1.299,1.873,2.798,3.268,4.396,4.277
		c1.679,1.526,3.936,2.537,6.872,2.537c11.793,0,23.592,0,35.371,0c9.849,0,15.701-3.054,21.448,5.733
		c10.03,15.316,17.603,32.099,30.368,45.457c9.451,9.901,24.412-5.102,14.98-14.975
		C193.279,1232.771,186.498,1212.19,172.945,1196.347z M121.679,1112.598H140.6l-3.096,3.709c-0.745,0.906-3.618,0.432-5.543-0.29
		c-2.39-2.275-6.179-1.213-8.004-0.497L121.679,1112.598z M125.719,1117.767c1.494-0.474,3.49-0.777,4.477,0.318l0.209,0.228
		l0.289,0.119c0.361,0.137,2.195,0.844,4.187,1.023l-2.816,3.367h-1.01h-0.37h-1.005L125.719,1117.767z"/>
</g>
</svg>
